#!OML:ASF H:\GeneralSubjects\Female5\Project 1\Capture day 1\Session 1\Female5.ASF
:FULLY-SPECIFIED
:DEGREES
639
root 5.21215 15.8886 0.547223 -175.444 -21.9163 -173.463
lowerback 7.73992 0.223806 4.16984
upperback -9.27146 0.725653 3.90164
thorax -14.6196 -0.102476 1.93714
lowerneck -16.1018 -4.4298 -5.73594
upperneck 32.0205 -6.75036 -0.0256727
head 13.744 -4.35003 -0.305477
rclavicle 3.02153e-014 -8.42847e-014
rhumerus -30.219 20.9849 -69.3517
rradius 40.9474
rwrist -18.6406
rhand -30.7084 -20.761
rfingers 7.12502
rthumb -4.0016 -50.7032
lclavicle 3.02153e-014 -8.42847e-014
lhumerus -55.3946 3.5502 67.265
lradius 31.2367
lwrist -11.9667
lhand -32.247 29.2696
lfingers 7.12502
lthumb -5.48722 59.1786
rfemur 5.78791 21.4735 28.7645
rtibia 2.35867
rfoot -23.8833 -19.7369
rtoes -9.00402
lfemur -20.5885 -23.0527 9.65833
ltibia 20.0396
lfoot -29.3311 6.56871
ltoes -27.2167
640
root 4.82214 15.853 0.518771 -175.225 -20.3617 -174.083
lowerback 7.65246 0.661384 3.87384
upperback -9.24014 1.26198 3.74851
thorax -14.5245 0.172973 1.82002
lowerneck -16.1294 -4.3888 -5.62898
upperneck 32.0447 -6.69839 -0.114177
head 13.7498 -4.3299 -0.351669
rclavicle 2.11706e-014 4.53229e-014
rhumerus -29.2651 21.5678 -70.0173
rradius 41.6527
rwrist -18.7383
rhand -30.7716 -20.7124
rfingers 7.12502
rthumb -4.06254 -50.6535
lclavicle 2.11706e-014 4.53229e-014
lhumerus -56.7739 4.34665 67.147
lradius 30.5806
lwrist -11.8266
lhand -32.2782 29.2105
lfingers 7.12502
lthumb -5.51737 59.1187
rfemur 6.18087 23.0794 27.1268
rtibia 2.90437
rfoot -23.822 -20.0502
rtoes -9.7452
lfemur -19.149 -23.618 7.76296
ltibia 20.7244
lfoot -28.2198 2.98903
ltoes -27.2057
641
root 4.42342 15.8194 0.492925 -175.006 -18.9301 -174.885
lowerback 7.58402 1.05224 3.42759
upperback -9.18746 1.71849 3.57321
thorax -14.4215 0.429024 1.77893
lowerneck -16.1348 -4.35114 -5.52495
upperneck 32.0382 -6.63953 -0.228814
head 13.7365 -4.30983 -0.404654
rclavicle 4.74101e-014 -7.15625e-015
rhumerus -28.5107 22.1464 -70.6925
rradius 42.4312
rwrist -18.8231
rhand -30.7848 -20.5252
rfingers 7.12502
rthumb -4.07529 -50.466
lclavicle 4.74101e-014 -7.15625e-015
lhumerus -57.993 5.11922 67.1661
lradius 29.8273
lwrist -11.6148
lhand -32.0833 29.0704
lfingers 7.12502
lthumb -5.32914 58.9834
rfemur 6.42366 24.3253 25.1021
rtibia 3.57903
rfoot -23.4458 -20.2256
rtoes -10.9826
lfemur -17.5641 -23.6431 5.13246
ltibia 21.4439
lfoot -27.2 -0.962146
ltoes -26.6866
642
root 4.01901 15.7894 0.470961 -174.792 -17.6773 -175.846
lowerback 7.55595 1.37725 2.86628
upperback -9.11486 2.07464 3.3618
thorax -14.3266 0.651005 1.78221
lowerneck -16.1541 -4.32084 -5.41818
upperneck 32.0164 -6.58445 -0.35217
head 13.7194 -4.29056 -0.461898
rclavicle -3.97569e-015 -1.59028e-015
rhumerus -27.9575 22.6804 -71.3843
rradius 43.2704
rwrist -18.8666
rhand -30.6963 -20.1691
rfingers 7.12502
rthumb -3.98988 -50.1115
lclavicle -3.97569e-015 -1.59028e-015
lhumerus -58.9858 5.86096 67.2767
lradius 28.9305
lwrist -11.3944
lhand -31.7489 28.9132
lfingers 7.12502
lthumb -5.00625 58.8341
rfemur 6.49421 25.0908 22.6692
rtibia 4.34378
rfoot -22.7208 -20.2191
rtoes -12.2028
lfemur -15.8462 -23.4452 2.03486
ltibia 21.8099
lfoot -26.3409 -5.0247
ltoes -25.3124
643
root 3.61173 15.7644 0.454394 -174.581 -16.6529 -176.913
lowerback 7.58235 1.62389 2.25985
upperback -9.03743 2.32084 3.10994
thorax -14.2638 0.824966 1.78764
lowerneck -16.2132 -4.30455 -5.30351
upperneck 32.0119 -6.55308 -0.467439
head 13.7193 -4.27873 -0.52311
rclavicle 7.95139e-016 4.92986e-014
rhumerus -27.6268 23.1464 -72.1023
rradius 44.1525
rwrist -18.7966
rhand -30.473 -19.6604
rfingers 7.12502
rthumb -3.77422 -49.6067
lclavicle 7.95139e-016 4.92986e-014
lhumerus -59.7191 6.54917 67.4199
lradius 27.8898
lwrist -11.2868
lhand -31.356 28.7682
lfingers 7.12502
lthumb -4.62685 58.6977
rfemur 6.34747 25.3322 19.8765
rtibia 5.23246
rfoot -21.7365 -20.0246
rtoes -12.635
lfemur -14.0722 -23.0772 -1.30913
ltibia 21.6676
lfoot -25.4836 -8.75028
ltoes -23.059
644
root 3.20446 15.7454 0.444385 -174.365 -15.8837 -178
lowerback 7.65859 1.78974 1.69884
upperback -8.97321 2.46259 2.83232
thorax -14.2468 0.942714 1.75992
lowerneck -16.3076 -4.30591 -5.19543
upperneck 32.0307 -6.55428 -0.556711
head 13.7394 -4.27794 -0.580489
rclavicle -4.67144e-015 9.85972e-014
rhumerus -27.5347 23.5176 -72.8355
rradius 45.0438
rwrist -18.5165
rhand -30.0793 -19.0327
rfingers 7.12502
rthumb -3.39401 -48.9854
lclavicle -4.67144e-015 9.85972e-014
lhumerus -60.192 7.16792 67.5371
lradius 26.7455
lwrist -11.4526
lhand -30.9494 28.6393
lfingers 7.12502
lthumb -4.23423 58.577
rfemur 5.92131 25.0112 16.842
rtibia 6.30704
rfoot -20.3265 -19.9314
rtoes -12.8005
lfemur -12.3501 -22.625 -4.65417
ltibia 20.9769
lfoot -24.4546 -11.8588
ltoes -20.5211
645
root 2.80044 15.7338 0.441669 -174.131 -15.3588 -179.017
lowerback 7.77023 1.88024 1.26084
upperback -8.93309 2.51568 2.55187
thorax -14.2749 1.00358 1.67817
lowerneck -16.4355 -4.32548 -5.09838
upperneck 32.076 -6.58663 -0.625859
head 13.7805 -4.28918 -0.635539
rclavicle 1.13307e-014 6.75868e-014
rhumerus -27.6839 23.7716 -73.5751
rradius 45.9118
rwrist -17.9649
rhand -29.5385 -18.3352
rfingers 7.12502
rthumb -2.87179 -48.2956
lclavicle 1.13307e-014 6.75868e-014
lhumerus -60.415 7.71088 67.5872
lradius 25.573
lwrist -12.0059
lhand -30.6064 28.6396
lfingers 7.12502
lthumb -3.90305 58.5836
rfemur 5.15014 24.1489 13.7291
rtibia 7.66043
rfoot -18.4048 -20.1579
rtoes -12.9898
lfemur -10.8178 -21.9517 -7.82628
ltibia 19.9737
lfoot -23.6946 -13.2631
ltoes -18.3452
646
root 2.40316 15.7303 0.446387 -173.861 -15.0448 -179.898
lowerback 7.89563 1.90629 0.998344
upperback -8.92712 2.50127 2.29031
thorax -14.3441 1.01243 1.53341
lowerneck -16.5586 -4.36392 -5.04993
upperneck 32.1204 -6.6483 -0.650173
head 13.825 -4.31269 -0.669735
rclavicle 2.22639e-014 -1.03368e-014
rhumerus -28.0893 23.9173 -74.3145
rradius 46.7405
rwrist -17.185
rhand -28.93 -17.647
rfingers 7.12502
rthumb -2.28411 -47.6145
lclavicle 2.22639e-014 -1.03368e-014
lhumerus -60.4013 8.12675 67.6112
lradius 24.4657
lwrist -12.8943
lhand -30.3713 28.8788
lfingers 7.12502
lthumb -3.67602 58.8268
rfemur 3.97678 22.8626 10.7218
rtibia 9.41821
rfoot -16.2051 -20.7527
rtoes -12.4346
lfemur -9.62756 -21.0308 -10.6802
ltibia 18.9508
lfoot -22.7271 -14.2531
ltoes -16.3362
647
root 2.01578 15.7356 0.457983 -173.54 -14.8989 -180.645
lowerback 8.0194 1.87929 0.905112
upperback -8.95831 2.43422 2.05177
thorax -14.4491 0.977074 1.33109
lowerneck -16.627 -4.41734 -5.10246
upperneck 32.1359 -6.73004 -0.597135
head 13.8537 -4.34674 -0.657226
rclavicle -7.05686e-014 -5.80451e-014
rhumerus -28.7463 23.9708 -75.0423
rradius 47.4906
rwrist -16.3167
rhand -28.3257 -17.0349
rfingers 7.12502
rthumb -1.70044 -47.0079
lclavicle -7.05686e-014 -5.80451e-014
lhumerus -60.1636 8.35273 67.6924
lradius 23.5083
lwrist -13.9465
lhand -30.0496 29.2545
lfingers 7.12502
lthumb -3.36537 59.2077
rfemur 2.38291 21.3016 7.95507
rtibia 11.6732
rfoot -14.0126 -21.8411
rtoes -10.6957
lfemur -8.86394 -19.9505 -13.1995
ltibia 18.1339
lfoot -21.4915 -14.8732
ltoes -14.3793
